<?xml version="1.0" encoding="UTF-8"?>
<svg width="200pt" height="50pt" version="1.1" viewBox="0 600 1200 1" xmlns="http://www.w3.org/2000/svg">
 <g>
  <path d="m565.39 612.65c10.441-3.3359 21.035-9.6953 23.617-21.984 2.3047-11.004-3.0234-20.629-13.883-25.141-10.367-4.3086-25.129-3.1445-32.09 7.4648-4.0312 6.1445-5.3516 11.914-3.9375 17.16 1.8242 6.7812 7.5117 9.793 8.1484 10.117 2.0625 1.0312 4.5469 0.19141 5.5664-1.8594 1.0312-2.0508 0.19141-4.5469-1.8594-5.5664-0.035156-0.011719-2.9766-1.6094-3.8398-4.8477-0.76953-2.8555 0.19141-6.3711 2.8672-10.453 4.2852-6.5273 14.723-7.3438 21.949-4.3438 3.3828 1.4023 11.027 5.7461 8.9297 15.758-3.9258 18.758-37.992 19.02-38.34 19.02l-386.65-0.003906c-1.7266-9.4336-9.9609-16.621-19.883-16.621-9.9258 0-18.156 7.1875-19.883 16.621h-31.992l28.5-12.406c2.1016-0.91016 3.0703-3.3594 2.1484-5.4609-0.91016-2.1016-3.3594-3.0703-5.4609-2.1484l-46.789 20.363c-1.5352 0.68359-2.5195 2.1836-2.5078 3.8516s1.0078 3.1562 2.543 3.8047l42.852 18c0.52734 0.21484 1.0664 0.32422 1.6094 0.32422 1.6211 0 3.168-0.96094 3.8281-2.543 0.88672-2.1133-0.10938-4.5469-2.2188-5.4375l-23.832-10.008h31.559c2.125 8.9023 10.105 15.574 19.656 15.574 9.5508 0 17.531-6.6719 19.656-15.574h386.69c30.098 2.4375 43.871 18.73 44.074 18.973 0.81641 1.0078 2.0156 1.5352 3.2266 1.5352 0.91016 0 1.8359-0.30078 2.6055-0.92578 1.7891-1.4414 2.0625-4.0547 0.625-5.8438-0.49219-0.58594-9.1055-10.992-27.48-17.398zm-429.41 10.918c-6.5898 0-11.941-5.3516-11.941-11.941s5.3516-11.941 11.941-11.941 11.941 5.3516 11.941 11.941c0 6.5781-5.3672 11.941-11.941 11.941z"/>
  <path d="m1137.5 608.33-46.789-20.363c-2.1016-0.92578-4.5469 0.046875-5.4609 2.1484-0.91016 2.1016 0.046875 4.5469 2.1484 5.4609l28.5 12.406h-31.992c-1.7266-9.4336-9.9609-16.621-19.883-16.621-9.9258 0-18.156 7.1875-19.883 16.621h-386.68c-0.34766 0-34.402-0.21484-38.34-19.02-2.1016-10.008 5.543-14.352 8.9297-15.758 7.2109-3 17.664-2.1836 21.949 4.3438 2.6406 4.043 3.6133 7.5234 2.8789 10.367-0.83984 3.2891-3.8633 4.9336-3.8633 4.9336-2.0508 1.0312-2.8789 3.5156-1.8594 5.5664 1.0195 2.0508 3.5156 2.8789 5.5664 1.8594 0.63672-0.32422 6.3242-3.3359 8.1484-10.117 1.4141-5.2422 0.097656-11.016-3.9375-17.16-6.9492-10.621-21.719-11.773-32.09-7.4648-10.859 4.5-16.176 14.137-13.883 25.141 2.5664 12.289 13.176 18.648 23.617 21.984-18.359 6.4062-26.977 16.812-27.457 17.398-1.4414 1.7773-1.1641 4.3789 0.61328 5.8203 0.76953 0.625 1.6914 0.92578 2.6172 0.92578 1.1992 0 2.3984-0.51562 3.2266-1.5234 0.13281-0.16797 13.895-16.535 44.074-18.973h386.69c2.125 8.9023 10.105 15.574 19.656 15.574 9.5508 0 17.531-6.6719 19.656-15.574h31.559l-23.832 10.008c-2.1133 0.88672-3.1094 3.3242-2.2188 5.4375 0.67188 1.5859 2.207 2.543 3.8281 2.543 0.53906 0 1.0781-0.10938 1.6094-0.32422l42.852-18c1.5352-0.64844 2.5312-2.1367 2.543-3.8047 0.011719-1.6641-0.97266-3.1641-2.4961-3.8359zm-73.488 15.238c-6.5898 0-11.941-5.3516-11.941-11.941s5.3516-11.941 11.941-11.941 11.941 5.3516 11.941 11.941c0.011719 6.5781-5.3516 11.941-11.941 11.941z"/>
 </g>
</svg>
