<?xml version="1.0" encoding="UTF-8"?>
<svg width="1200pt" height="1200pt" version="1.1" viewBox="0 0 1200 1200" xmlns="http://www.w3.org/2000/svg">
 <g>
  <path d="m339.07 549.28-216.86-25.355c-2.1602-0.23828-4.1641 1.2852-4.4531 3.4688-0.28906 2.1719 1.2227 4.1875 3.4062 4.5l210.18 30.77z"/>
  <path d="m295.75 624.3-174.6 25.559c-2.1719 0.3125-3.6953 2.3281-3.4062 4.5 0.28906 2.1719 2.3047 3.7305 4.4531 3.4688l165.35-19.332z"/>
  <path d="m406.26 432.9-186.55-138.91c-1.7656-1.3086-4.2617-0.94922-5.5938 0.78125-1.3438 1.7539-1.0312 4.2344 0.69531 5.6055l183.98 145.46z"/>
  <path d="m547.75 942.91-14.715 125.75c-0.25391 2.1836 1.2969 4.1641 3.4688 4.4648 2.1836 0.23828 4.1875-1.2344 4.5-3.4062l18.562-126.8z"/>
  <path d="m448.27 942.91-36.613 92.137c-0.81641 2.0391 0.16797 4.3555 2.1953 5.207 2.0156 0.82812 4.3555-0.10938 5.2305-2.125l41.062-95.207-11.875 0.003906z"/>
  <path d="m441.24 372.31-131.75-166.63c-1.3555-1.7266-3.8516-2.0156-5.6055-0.69531-1.7383 1.332-2.0898 3.8281-0.78125 5.5938l130.39 175.12z"/>
  <path d="m324.17 942.91-21.047 28.262c-1.3086 1.7656-0.97266 4.2461 0.78125 5.5938 1.7539 1.332 4.2344 1.0195 5.6055-0.69531l26.207-33.156z"/>
  <path d="m229.79 738.54-77.051 33.227c-2.0156 0.875-2.9648 3.2031-2.125 5.2305 0.83984 2.0391 3.1797 2.9883 5.207 2.1953l65.531-26.039z"/>
  <path d="m373.79 489.14-217.97-86.605c-2.0273-0.80469-4.3555 0.16797-5.207 2.1953-0.83984 2.0273 0.10938 4.3555 2.125 5.2305l213.57 92.113z"/>
  <path d="m833.68 502.08 213.57-92.113c2.0156-0.86328 2.9648-3.2031 2.125-5.2305s-3.1562-3.0234-5.207-2.1953l-217.96 86.605z"/>
  <path d="m801.2 445.82 183.98-145.46c1.7266-1.3555 2.0273-3.8516 0.69531-5.6055-1.3555-1.7266-3.8516-2.0742-5.5938-0.78125l-186.55 138.93z"/>
  <path d="m766.49 385.69 130.39-175.12c1.3086-1.7656 0.96094-4.2617-0.78125-5.5938-1.7539-1.332-4.2344-1.043-5.6055 0.69531l-131.73 166.64z"/>
  <path d="m868.66 562.66 210.18-30.781c2.1719-0.32422 3.6836-2.3281 3.4062-4.5-0.28906-2.1719-2.0156-3.6719-4.4648-3.4688l-216.85 25.355z"/>
  <path d="m485.02 296.48-65.93-152.87c-0.86328-2.0156-3.1914-2.9414-5.2305-2.125-2.0273 0.83984-3.0117 3.1562-2.1953 5.207l65.16 163.98z"/>
  <path d="m551.23 181.8-10.211-69.77c-0.3125-2.1719-2.293-3.7305-4.5-3.4062-2.1719 0.28906-3.7305 2.2695-3.4688 4.4531l9.7422 83.34z"/>
  <path d="m657.21 196.41 9.7422-83.34c0.26562-2.1836-1.2852-4.1641-3.4688-4.4531-2.2422-0.33594-4.1758 1.2344-4.5 3.4062l-10.211 69.77z"/>
  <path d="m723.18 310.68 65.16-163.98c0.80469-2.0508-0.16797-4.3555-2.1953-5.207-2.0273-0.83984-4.3672 0.10937-5.2305 2.125l-65.93 152.87z"/>
  <path d="m739.85 942.91 41.062 95.207c0.86328 2.0039 3.2031 2.9766 5.2305 2.125 2.0273-0.85156 3-3.1562 2.1953-5.207l-36.613-92.137h-11.875z"/>
  <path d="m864.3 942.91 26.207 33.156c1.3555 1.7383 3.8633 2.0273 5.6055 0.69531 1.7383-1.3438 2.0898-3.8281 0.78125-5.5938l-21.047-28.262z"/>
  <path d="m640.41 942.91 18.562 126.8c0.28906 1.9922 2.0039 3.4336 3.9727 3.4336 0.16797 0 0.34766-0.011719 0.52734-0.035157 2.1719-0.28906 3.7305-2.2695 3.4688-4.4648l-14.699-125.75-11.832-0.003906z"/>
  <path d="m912.45 638.5 165.35 19.332c2.4492 0.32422 4.1641-1.2969 4.4648-3.4688 0.28906-2.1719-1.2344-4.1875-3.4062-4.5l-174.6-25.57z"/>
  <path d="m978.65 753.17 65.52 26.039c2.0508 0.78125 4.3672-0.16797 5.207-2.1953 0.83984-2.0273-0.10938-4.3555-2.125-5.2305l-77.039-33.227z"/>
  <path d="m1136 586.85-255.55-3.707 8.8438 15.324 246.71-3.5742c2.1836-0.035156 3.9609-1.8242 3.9609-4.0195 0-2.1992-1.7656-3.9883-3.9609-4.0234z"/>
  <path d="m593.32 942.91 2.6641 184c0.035156 2.1836 1.8242 3.9609 4.0195 3.9609s3.9844-1.7656 4.0195-3.9609l2.6641-184z"/>
  <path d="m850.95 531.97 267.88-75.949c2.1133-0.60156 3.3477-2.7852 2.7852-4.9062-0.5625-2.1133-2.6758-3.3828-4.8711-2.8555l-274.16 69.215z"/>
  <path d="m945.48 942.91 30.707 29.832c1.5859 1.5352 4.0938 1.5 5.6523-0.035157 1.5469-1.5586 1.5703-4.0664 0.035156-5.6523l-23.461-24.145z"/>
  <path d="m319.51 583.15-255.55 3.6953c-2.1953 0.035156-3.9609 1.8242-3.9609 4.0195 0 2.1953 1.7656 3.9844 3.9609 4.0195l246.71 3.5742z"/>
  <path d="m357.43 517.48-274.16-69.23c-2.0898-0.52734-4.2969 0.73047-4.8711 2.8555-0.5625 2.125 0.67187 4.3086 2.7852 4.9062l267.88 75.949z"/>
  <path d="m796.38 942.91 68.16 114.19c1.1289 1.8828 3.5898 2.4961 5.4609 1.4297 1.9062-1.1055 2.5781-3.5273 1.5-5.4492l-61.5-110.17z"/>
  <path d="m423.52 403-199.71-194c-1.5703-1.5352-4.0938-1.5117-5.6406 0.035156-1.5586 1.5586-1.5703 4.0664-0.035156 5.6406l197.03 202.82z"/>
  <path d="m390.39 460.38-252.61-141.01c-1.9219-1.0664-4.3438-0.39453-5.4375 1.5-1.1055 1.9062-0.46875 4.332 1.4141 5.4609l248.43 148.27z"/>
  <path d="m267.73 672.84-186.54 52.895c-2.1133 0.60156-3.3594 2.7852-2.7852 4.8945 0.57422 2.1367 2.7734 3.3711 4.8711 2.8555l174.95-44.172z"/>
  <path d="m1031.9 845.46 30.289 16.906c1.9062 1.0547 4.3438 0.42187 5.4492-1.5 1.1055-1.9062 0.45703-4.332-1.4297-5.4609l-43.586-26.016z"/>
  <path d="m177.34 829.4-43.57 26.004c-1.8828 1.1289-2.5195 3.5625-1.4141 5.4609 1.1055 1.8945 3.5156 2.5781 5.4375 1.5l30.277-16.895z"/>
  <path d="m390 942.91-61.5 110.17c-1.0664 1.9219-0.40625 4.3438 1.5 5.4492 1.9219 1.0938 4.3438 0.45703 5.4609-1.4297l68.16-114.19z"/>
  <path d="m498.96 942.91-41.582 164.69c-0.52734 2.1367 0.74219 4.3086 2.8555 4.8711 2.1719 0.58984 4.3086-0.67188 4.9062-2.7852l47.281-166.77-13.461 0.003906z"/>
  <path d="m241.59 942.91-23.461 24.145c-1.5234 1.5859-1.5117 4.0938 0.035156 5.6523 1.5586 1.5234 4.0664 1.5703 5.6406 0.035157l30.707-29.832z"/>
  <path d="m687.57 942.91 47.293 166.77c0.58984 2.1133 2.7969 3.3594 4.8945 2.7852 2.125-0.5625 3.4062-2.7344 2.8555-4.8711l-41.578-164.68z"/>
  <path d="m461.9 336.5-126.44-211.87c-1.1172-1.8711-3.5391-2.5078-5.4609-1.4141-1.9062 1.1055-2.5664 3.5273-1.5 5.4375l124.57 223.16z"/>
  <path d="m514.37 245.65-49.223-173.59c-0.60156-2.1133-2.7344-3.3594-4.9062-2.7852-2.125 0.57422-3.3945 2.7344-2.8555 4.8711l47.473 188z"/>
  <path d="m746.93 351.83 124.56-223.16c1.0781-1.9219 0.40625-4.3438-1.5-5.4375-1.8711-1.0938-4.332-0.48047-5.4609 1.4141l-126.44 211.86z"/>
  <path d="m695.15 262.14 47.473-188c0.53906-2.1367-0.73047-4.2969-2.8555-4.8711-2.0898-0.57422-4.3086 0.67188-4.8945 2.7852l-49.223 173.61z"/>
  <path d="m784.85 417.49 197.03-202.81c1.5352-1.5703 1.5117-4.0938-0.035156-5.6406-1.5586-1.5586-4.0664-1.5859-5.6523-0.035156l-199.7 193.99z"/>
  <path d="m941.79 689.32 174.95 44.172c2.1719 0.55078 4.3086-0.71875 4.8711-2.8555 0.5625-2.1133-0.67188-4.3086-2.7852-4.8945l-186.55-52.898z"/>
  <path d="m817.81 474.6 248.43-148.26c1.8828-1.1289 2.5195-3.5508 1.4297-5.4609-1.1055-1.9062-3.5391-2.543-5.4492-1.5l-252.61 141z"/>
  <path d="m600 133.78-456.64 790.91h913.26zm400.95 758.75h-17.953c4.0781-3.2656 8.0742-6.7188 12.121-10.094zm-26.715 0h-49.871c17.977-12.551 35.664-26.23 53.004-40.836l15.035 26.039c-6.0352 5.0312-12.059 9.9961-18.168 14.797zm-62.484 0h-52.98c34.621-19.883 68.387-43.848 100.82-71.629l14.148 24.492c-20.219 17.102-40.941 32.906-61.992 47.137zm43.742-78.719c-36.266 31.188-74.195 57.602-113.14 78.719h-55.055c54-23.879 105.77-58.141 154.59-102.29zm-751.42 70.066c3.4453 2.8789 6.8516 5.8555 10.32 8.6641h-15.324zm19.008 8.6523c-5.4727-4.3438-10.871-8.832-16.297-13.367l15.109-26.16c16.656 14.102 33.625 27.371 50.844 39.539h-49.656zm62.344 0c-20.305-13.883-40.332-29.219-59.891-45.84l14.23-24.648c31.68 27.277 64.621 50.867 98.41 70.488zm69.012 0c-38.051-20.867-75.109-46.922-110.57-77.594l13.703-23.723c47.891 43.586 98.566 77.629 151.48 101.32zm82.605 0c-61.031-23.484-119.35-60.742-173.99-110.82l11.855-20.531c76.234 71.219 161.69 115.81 251.07 131.35zm499.36-111.78c-55.559 50.594-115 88.141-177.14 111.78h-89.027c90.551-15.637 177.19-60.574 254.4-132.19zm-336.43 104.66c-0.78125 0-1.5352 0.011719-2.3047 0.011719-140.06 0-247.52-71.617-315.91-136.11l10.355-17.953c66.191 63.984 169.59 133.77 305.77 133.77 0.71875 0 1.4414-0.011719 2.1602-0.011719 136.98-0.74219 240.97-70.656 307.44-134.45l10.285 17.82c-68.719 64.336-176.85 136.14-317.8 136.92zm-1.8594-56.48h1.9453c129.9-0.69531 226.64-68.832 288.27-131.47l10.883 18.852c-64.141 62.426-165.5 132.02-299.23 132.74-0.69531 0-1.3672 0.011719-2.0625 0.011719-132.88 0-233.63-69.469-297.47-132.07l10.969-19.008c61.336 62.879 157.54 130.95 286.7 130.95zm280.45-148.36c-58.824 60.996-152.52 128.93-278.61 129.6h-1.8359c-125.29 0-218.43-67.871-276.97-129.09l11.797-20.438c48.66 54.707 138.52 129.84 265.46 129.84h1.6562c127.61-0.66016 217.96-75.742 266.81-130.19zm-22.965-39.777c-45.035 51.781-132.07 127.63-255.65 128.27h-1.5352c-122.84 0-209.35-75.938-254.18-127.96l13.523-23.426c29.699 39.684 110.8 128.63 240.96 128.63h1.3672c130.81-0.625 212.3-89.281 242.11-128.72zm-400.37-191.94c45.18-23.914 93.574-36.168 144.13-36.168h0.625c50.914 0.10937 99.637 12.539 145.11 36.684l24.07 41.699c-41.219-29.855-97.402-55.5-169.12-55.633h-0.55078c-71.328 0-127.27 25.441-168.37 55.188zm144.77-223.34c5.3398 0.011719 10.691 0.15625 16.031 0.32422l13.609 23.566c-9.8398-0.625-19.738-0.97266-29.617-0.99609-9.8867 0.035156-19.777 0.39453-29.617 0.96094l13.645-23.629c5.3516-0.15625 10.703-0.25 15.949-0.22656zm-11.281-7.8477 11.293-19.559 11.316 19.609c-3.7695-0.085937-7.5469-0.22656-11.305-0.22656-3.7539 0.007812-7.5352 0.10547-11.305 0.17578zm-47.699 82.609c19.5-2.6172 39.383-3.9258 58.969-3.9375 19.848 0.046875 39.66 1.4414 59.125 4.1523l13.164 22.801c-23.723-4.2461-47.879-6.6133-72.254-6.6602-24.324-0.035156-48.434 2.125-72.07 6.2773zm22.895-39.648c11.941-0.875 23.953-1.4766 36.086-1.4883 12.098 0.023438 24.168 0.68359 36.191 1.6445l14.578 25.262c-16.777-1.9453-33.742-3.0586-50.746-3.0977-17.172-0.13281-33.996 0.9375-50.629 2.832zm-46.668 80.832c27.121-5.7227 55.176-8.7344 82.754-8.7461 28.066 0.058594 55.859 3.1797 82.945 9.0234l13.883 24.047c-31.414-8.4844-63.816-12.887-96.793-12.949h-0.76953c-32.617 0-64.715 4.2227-95.809 12.516zm-27.43 47.496c35.219-11.508 71.953-17.375 109.44-17.375h0.73047c37.848 0.070313 74.902 6.0977 110.47 17.809l15.695 27.18c-40.117-16.715-82.367-25.234-126.12-25.32h-0.66016c-43.453 0-85.402 8.3984-125.27 24.926zm224.57 296.18c22.223-25.453 35.699-58.332 35.699-94.262 0-36.73-14.137-70.246-37.273-95.914 59.496 30.191 96.168 76.98 109.12 95.762-13.125 18.465-49.738 64.102-107.54 94.414zm-336.34-94.406c12.961-18.875 49.801-66.086 109.61-96.254-23.387 25.738-37.715 59.438-37.715 96.406 0 36.539 13.98 69.887 36.887 95.52-58.367-30.32-95.582-77.012-108.78-95.672zm350.61 0.14453c0 59.125-42.84 108.65-100.04 121.27-9.2891 1.1406-18.77 1.957-28.668 2.0039-8.3281 0.070313-16.402-0.35938-24.301-1.1055-59.305-11.062-104.26-61.598-104.26-122.17 0-59.953 44.039-110.14 102.46-121.87 8.3281-0.85156 16.848-1.4023 25.68-1.4023h0.46875c9.3828 0.011719 18.383 0.68359 27.191 1.6562 57.91 12.105 101.47 62.004 101.47 121.62z"/>
  <path d="m600 515.53c-43.836 0-79.5 33.793-79.5 75.336 0 41.543 35.664 75.336 79.5 75.336s79.5-33.805 79.5-75.336-35.664-75.336-79.5-75.336zm-66.098 75.336c0-34.152 29.652-61.934 66.098-61.934 36.457 0 66.098 27.781 66.098 61.934 0 34.164-29.652 61.945-66.098 61.945s-66.098-27.781-66.098-61.945z"/>
  <path d="m620.8 617.47c1.1875-5.6641-20.797-21.254-20.797-26.605 0-5.8203 21.539-23.172 20.797-26.711-1.5234-7.1992-11.785-14.891-20.797-14.891-19.523 0-35.363 22.066-35.363 41.605 0 19.523 15.828 41.605 35.363 41.605 8.4961-0.003906 19.523-8.8828 20.797-15.004z"/>
 </g>
</svg>
